<svg width="16" height="17" viewBox="0 0 16 17" fill="none" xmlns="http://www.w3.org/2000/svg">
<path d="M13.3307 0.949552C13.3307 0.831717 13.2839 0.718708 13.2006 0.635386C13.1173 0.552064 13.0042 0.505254 12.8864 0.505254H10.6649C9.54629 0.449531 8.45107 0.838826 7.61857 1.58808C6.78606 2.33733 6.28395 3.38563 6.22194 4.50394V6.90315H4.00045C3.88262 6.90315 3.76961 6.94996 3.68628 7.03328C3.60296 7.1166 3.55615 7.22961 3.55615 7.34744V9.65779C3.55615 9.77563 3.60296 9.88864 3.68628 9.97196C3.76961 10.0553 3.88262 10.1021 4.00045 10.1021H6.22194V16.0557C6.22194 16.1735 6.26875 16.2865 6.35207 16.3699C6.43539 16.4532 6.5484 16.5 6.66624 16.5H9.33203C9.44986 16.5 9.56287 16.4532 9.64619 16.3699C9.72952 16.2865 9.77633 16.1735 9.77633 16.0557V10.1021H12.1044C12.2033 10.1035 12.2997 10.072 12.3786 10.0124C12.4574 9.95286 12.5142 9.86873 12.5399 9.77331L13.1796 7.46296C13.1973 7.39731 13.1997 7.32849 13.1866 7.26178C13.1735 7.19506 13.1452 7.13225 13.104 7.07817C13.0628 7.0241 13.0098 6.98019 12.9489 6.94985C12.8881 6.91951 12.8211 6.90353 12.7531 6.90315H9.77633V4.50394C9.79843 4.28399 9.90172 4.08018 10.066 3.9323C10.2303 3.78442 10.4439 3.70309 10.6649 3.7042H12.8864C13.0042 3.7042 13.1173 3.65739 13.2006 3.57407C13.2839 3.49075 13.3307 3.37774 13.3307 3.2599V0.949552Z" fill="white"/>
</svg>
