<svg width="16" height="17" viewBox="0 0 16 17" fill="none" xmlns="http://www.w3.org/2000/svg">
<path d="M8.00357 4.3978C5.7329 4.3978 3.90137 6.22933 3.90137 8.5C3.90137 10.7707 5.7329 12.6022 8.00357 12.6022C10.2742 12.6022 12.1058 10.7707 12.1058 8.5C12.1058 6.22933 10.2742 4.3978 8.00357 4.3978ZM8.00357 11.167C6.5362 11.167 5.33661 9.97094 5.33661 8.5C5.33661 7.02906 6.53263 5.83304 8.00357 5.83304C9.47451 5.83304 10.6705 7.02906 10.6705 8.5C10.6705 9.97094 9.47094 11.167 8.00357 11.167ZM13.2304 4.23C13.2304 4.76197 12.802 5.18682 12.2736 5.18682C11.7416 5.18682 11.3167 4.7584 11.3167 4.23C11.3167 3.70161 11.7452 3.27318 12.2736 3.27318C12.802 3.27318 13.2304 3.70161 13.2304 4.23ZM15.9473 5.2011C15.8866 3.91939 15.5939 2.78406 14.6549 1.84866C13.7195 0.913254 12.5842 0.620495 11.3025 0.556231C9.98148 0.481256 6.02209 0.481256 4.7011 0.556231C3.42296 0.616925 2.28763 0.909684 1.34866 1.84509C0.409684 2.78049 0.120495 3.91582 0.0562312 5.19753C-0.0187437 6.51852 -0.0187437 10.4779 0.0562312 11.7989C0.116925 13.0806 0.409684 14.2159 1.34866 15.1513C2.28763 16.0867 3.41939 16.3795 4.7011 16.4438C6.02209 16.5187 9.98148 16.5187 11.3025 16.4438C12.5842 16.3831 13.7195 16.0903 14.6549 15.1513C15.5903 14.2159 15.8831 13.0806 15.9473 11.7989C16.0223 10.4779 16.0223 6.52209 15.9473 5.2011ZM14.2408 13.2163C13.9623 13.916 13.4232 14.4551 12.7198 14.7372C11.6666 15.1549 9.16747 15.0585 8.00357 15.0585C6.83967 15.0585 4.33694 15.1513 3.28729 14.7372C2.58753 14.4587 2.04842 13.9196 1.76637 13.2163C1.34866 12.1631 1.44505 9.6639 1.44505 8.5C1.44505 7.3361 1.35223 4.83337 1.76637 3.78372C2.04485 3.08396 2.58396 2.54485 3.28729 2.2628C4.34051 1.84509 6.83967 1.94148 8.00357 1.94148C9.16747 1.94148 11.6702 1.84866 12.7198 2.2628C13.4196 2.54128 13.9587 3.08039 14.2408 3.78372C14.6585 4.83694 14.5621 7.3361 14.5621 8.5C14.5621 9.6639 14.6585 12.1666 14.2408 13.2163Z" fill="white"/>
</svg>
